<svg width="584" height="491" viewBox="0 0 584 491" fill="none" xmlns="http://www.w3.org/2000/svg">
<path d="M564.636 239.606C567.56 200.793 558.526 160.317 546.438 124.129C528.474 70.4592 493.587 15.4242 434.847 2.72483C400.974 -4.60623 366.515 3.24477 337.477 21.5984C309.543 39.2502 287.758 62.0492 253.443 66.4687C218.711 70.9401 183.07 69.0683 148.156 69.0683C58.4675 69.0683 -14.4402 163.371 3.77051 261.587C21.9812 359.802 107.835 427.965 180.678 427.965C246.137 427.965 299.99 388.684 362.161 378.143C392.993 372.943 423.955 379.105 454.449 371.267C489.908 362.168 523.262 340.435 542.903 308.966C556.291 287.557 562.803 263.913 564.636 239.606Z" fill="#7557D3" fill-opacity="0.65"/>
<path opacity="0.9" d="M564.636 239.606C567.56 200.793 558.526 160.317 546.438 124.129C528.474 70.4592 493.587 15.4242 434.847 2.72483C400.974 -4.60623 366.515 3.24477 337.477 21.5984C309.543 39.2502 287.758 62.0492 253.443 66.4687C218.711 70.9401 183.07 69.0683 148.156 69.0683C58.4675 69.0683 -14.4402 163.371 3.77051 261.587C21.9812 359.802 107.835 427.965 180.678 427.965C246.137 427.965 299.99 388.684 362.161 378.143C392.993 372.943 423.955 379.105 454.449 371.267C489.908 362.168 523.262 340.435 542.903 308.966C556.291 287.557 562.803 263.913 564.636 239.606Z" fill="white"/>
<path d="M287.212 94.974H191.531V227.622H287.212V94.974Z" stroke="#1D272C" stroke-width="1.72082" stroke-miterlimit="10"/>
<path d="M275.449 111.287H203.295V211.322H275.449V111.287Z" stroke="#1D272C" stroke-width="1.72082" stroke-miterlimit="10"/>
<path d="M462.612 163.475H395.943V255.893H462.612V163.475Z" stroke="#1D272C" stroke-width="1.72082" stroke-miterlimit="10"/>
<path d="M454.423 174.836H404.145V244.533H454.423V174.836Z" stroke="#1D272C" stroke-width="1.72082" stroke-miterlimit="10"/>
<path d="M548.154 338.485C548.154 338.485 549.453 333.857 549.453 333.559C549.947 330.049 548.83 322.978 545.255 321.249C544.654 320.98 544.003 320.84 543.344 320.839C542.685 320.838 542.034 320.975 541.432 321.242C540.83 321.51 540.291 321.901 539.85 322.39C539.409 322.879 539.076 323.456 538.873 324.083C537.911 326.682 539.12 329.945 540.563 332.168C542.252 334.767 548.141 338.485 548.154 338.485Z" fill="#FDC840"/>
<path d="M477.703 336.951C480.549 338.251 487.516 338.043 487.529 338.043C487.542 338.043 486.022 333.481 485.892 333.208C484.371 330.01 479.535 324.733 475.597 325.266C474.947 325.371 474.327 325.613 473.777 325.974C473.228 326.336 472.76 326.809 472.406 327.364C472.051 327.918 471.817 328.541 471.72 329.192C471.623 329.843 471.664 330.507 471.84 331.141C472.49 333.87 475.285 335.898 477.703 336.951Z" fill="#FDC840"/>
<path d="M488.517 322.835H488.582C488.426 323.953 488.27 325.149 488.127 326.474C487.893 328.905 487.646 331.674 487.568 334.663C487.457 337.91 487.535 341.161 487.802 344.399C488.086 348.024 488.691 351.617 489.609 355.136V355.253C488.985 354.278 487.139 351.587 487.009 351.353C484.683 348.676 478.639 344.854 474.986 346.401C474.385 346.675 473.849 347.072 473.412 347.568C472.975 348.063 472.648 348.645 472.451 349.276C472.255 349.907 472.194 350.572 472.273 351.228C472.351 351.883 472.567 352.515 472.906 353.082C474.206 355.526 477.482 356.747 480.094 357.124C483.045 357.553 489.271 355.825 489.765 355.604C490.782 359.152 492.042 362.627 493.535 366.002C494.38 367.978 495.302 369.902 496.264 371.904C495.692 371.072 495.172 370.344 495.094 370.24C492.781 367.562 486.724 363.741 483.071 365.3C482.462 365.574 481.918 365.975 481.477 366.476C481.035 366.977 480.705 367.567 480.509 368.205C480.314 368.844 480.257 369.517 480.342 370.179C480.427 370.842 480.653 371.478 481.004 372.047C482.304 374.503 485.58 375.712 488.205 376.102C490.831 376.492 496.186 375.049 497.59 374.659C497.967 375.4 498.331 376.154 498.708 376.908C500.502 380.482 502.322 384.057 503.985 387.606C504.57 388.905 505.103 390.114 505.649 391.375C505.142 390.634 504.713 390.075 504.635 389.932C502.322 387.255 496.264 383.433 492.612 384.993C492.013 385.267 491.478 385.664 491.042 386.159C490.607 386.653 490.28 387.234 490.084 387.863C489.888 388.492 489.826 389.155 489.904 389.81C489.981 390.464 490.195 391.095 490.532 391.661C491.832 394.118 495.107 395.327 497.733 395.704C500.359 396.08 505.194 394.807 506.832 394.339C507.339 395.638 507.859 396.938 508.301 398.238C508.574 399.122 508.912 399.954 509.133 400.838C509.354 401.722 509.627 402.606 509.874 403.438C510.277 405.14 510.718 406.882 511.069 408.546C511.329 409.703 511.55 410.808 511.771 411.925C511.199 410.626 510.03 408.234 509.913 408.026C508.028 405.036 502.621 400.344 498.773 401.319C498.14 401.5 497.552 401.813 497.047 402.236C496.543 402.66 496.133 403.184 495.843 403.776C495.554 404.368 495.393 405.014 495.369 405.672C495.345 406.33 495.46 406.986 495.705 407.597C496.667 410.197 499.67 411.925 502.205 412.692C504.986 413.55 511.16 412.77 511.927 412.692C512.304 414.538 512.642 416.332 512.941 418.035C513.877 423.377 514.488 427.939 514.904 431.319H517.569C517.088 427.874 516.36 423.169 515.255 417.606C514.878 415.734 514.449 413.706 513.955 411.691C515.811 410.931 517.621 410.063 519.375 409.092C521.403 411.288 526.615 413.862 527.278 414.187C526.576 415.929 525.875 417.619 525.186 419.191C523.041 424.131 521.052 428.225 519.531 431.267H522.599C523.977 428.303 525.68 424.534 527.486 420.114C528.214 418.347 528.955 416.449 529.696 414.486C530.45 414.642 536.546 415.877 539.393 415.24C541.992 414.655 545.099 413.199 546.256 410.639C546.55 410.047 546.716 409.4 546.743 408.739C546.769 408.079 546.656 407.421 546.411 406.807C546.165 406.194 545.793 405.639 545.318 405.179C544.844 404.719 544.277 404.365 543.656 404.139C539.9 402.84 534.154 407.155 532.049 410.002C531.932 410.171 530.749 412.146 530.086 413.407C530.385 412.601 530.684 411.821 530.983 410.99C531.581 409.365 532.127 407.714 532.725 405.933C532.985 405.075 533.258 404.191 533.518 403.334C533.778 402.476 533.985 401.514 534.219 400.591C534.739 398.446 535.142 396.236 535.519 394.014C536.949 394.534 542.018 396.314 544.722 396.132C547.426 395.95 550.675 394.976 552.196 392.623C552.574 392.084 552.834 391.472 552.959 390.826C553.084 390.18 553.073 389.515 552.924 388.873C552.776 388.232 552.494 387.63 552.098 387.104C551.702 386.579 551.199 386.143 550.623 385.825C547.101 384.005 540.771 387.359 538.262 389.854C538.106 390.01 536.507 391.999 535.662 393.117C535.87 391.817 536.091 390.439 536.26 389.074C536.741 385.175 537.118 381.145 537.56 377.155C537.677 375.933 537.807 374.724 537.937 373.502C538.444 373.697 544.436 375.946 547.452 375.738C550.051 375.556 553.405 374.581 554.939 372.242C555.318 371.701 555.579 371.087 555.705 370.439C555.83 369.791 555.818 369.124 555.668 368.481C555.519 367.839 555.235 367.235 554.836 366.709C554.437 366.183 553.932 365.748 553.353 365.43C549.83 363.611 543.513 366.964 540.992 369.46C540.81 369.655 538.509 372.527 537.963 373.281C538.249 370.604 538.548 367.939 538.964 365.313C539.494 361.774 540.258 358.275 541.252 354.837C541.486 354.928 547.751 357.306 550.818 357.085C553.418 356.903 556.772 355.942 558.292 353.589C558.67 353.049 558.93 352.436 559.056 351.789C559.181 351.142 559.169 350.476 559.021 349.833C558.873 349.191 558.591 348.588 558.195 348.061C557.798 347.535 557.296 347.098 556.72 346.778C553.197 344.958 546.867 348.312 544.358 350.82C544.189 350.976 542.447 353.16 541.629 354.226L541.434 354.122C542.523 350.691 543.915 347.363 545.593 344.178C546.49 342.41 547.452 340.773 548.427 339.2C549.557 339.759 554.731 342.28 557.525 342.384C560.32 342.488 563.57 341.89 565.324 339.72C565.76 339.226 566.087 338.646 566.284 338.018C566.48 337.389 566.542 336.726 566.464 336.072C566.387 335.419 566.173 334.788 565.835 334.223C565.498 333.658 565.045 333.17 564.506 332.792C561.191 330.595 554.549 333.234 551.767 335.391C551.624 335.508 550.22 336.899 549.168 337.926C549.622 337.224 550.064 336.483 550.467 335.82C552.118 333.325 553.795 331.141 555.29 329.217C556.161 328.125 556.954 327.163 557.707 326.266C559.111 326.266 564.714 326.071 567.17 324.967C569.627 323.862 572.37 321.743 572.889 319C573.047 318.362 573.069 317.698 572.954 317.051C572.839 316.404 572.59 315.788 572.223 315.243C571.855 314.698 571.378 314.237 570.821 313.887C570.264 313.538 569.641 313.31 568.99 313.216C565.09 312.8 560.359 318.207 558.916 321.444C558.786 321.717 557.343 326.318 557.421 326.318H557.499C556.759 327.163 555.966 328.086 555.121 329.1C553.574 330.998 551.845 333.156 550.129 335.599C548.236 338.242 546.5 340.993 544.93 343.84C543.166 347.022 541.687 350.354 540.511 353.797V353.914C540.511 352.757 540.511 349.507 540.446 349.26C539.991 345.738 537.053 339.226 533.154 338.498C532.502 338.395 531.835 338.43 531.198 338.602C530.561 338.774 529.967 339.079 529.456 339.496C528.944 339.913 528.526 340.433 528.229 341.023C527.933 341.612 527.764 342.258 527.733 342.917C527.499 345.712 529.527 348.507 531.503 350.261C533.726 352.25 539.913 354.161 540.394 354.33C539.288 357.86 538.42 361.46 537.794 365.105C537.404 367.224 537.092 369.382 536.806 371.54C536.806 370.539 536.806 369.629 536.806 369.512C536.351 365.989 533.401 359.477 529.501 358.749C528.85 358.648 528.185 358.685 527.549 358.858C526.914 359.031 526.322 359.336 525.812 359.753C525.302 360.17 524.885 360.689 524.589 361.278C524.293 361.866 524.124 362.511 524.094 363.169C523.86 365.963 525.888 368.758 527.863 370.513C529.839 372.268 535.09 374.048 536.481 374.503L536.169 376.986C535.701 380.963 535.233 384.941 534.674 388.827C534.466 390.192 534.219 391.531 533.985 392.883C533.985 391.986 533.985 391.232 533.985 391.115C533.531 387.606 530.58 381.08 526.68 380.365C526.029 380.262 525.363 380.298 524.727 380.47C524.09 380.642 523.497 380.947 522.987 381.364C522.476 381.781 522.06 382.302 521.764 382.891C521.469 383.481 521.302 384.126 521.273 384.785C521.039 387.567 523.067 390.361 525.043 392.129C527.018 393.897 531.763 395.496 533.414 396.028C533.128 397.393 532.842 398.771 532.504 400.084C532.244 400.968 532.062 401.839 531.75 402.684C531.438 403.529 531.191 404.438 530.918 405.283C530.32 406.921 529.709 408.611 529.085 410.197C528.669 411.302 528.24 412.341 527.785 413.394C527.993 412.094 528.357 409.365 528.357 409.144C528.317 406.024 527.476 402.967 525.914 400.266C525.931 399.922 525.909 399.578 525.849 399.239C525.769 398.584 525.553 397.954 525.213 397.389C524.873 396.823 524.418 396.336 523.876 395.96C523.335 395.583 522.72 395.325 522.072 395.202C521.424 395.08 520.758 395.095 520.116 395.249C516.282 396.275 513.851 403.048 513.617 406.544C513.617 406.752 513.734 409.027 513.851 410.444C513.656 409.612 513.474 408.806 513.266 407.948C512.863 406.245 512.421 404.568 511.966 402.749C511.706 401.878 511.433 401.007 511.173 400.149C510.913 399.291 510.549 398.368 510.238 397.471C509.484 395.392 508.613 393.325 507.638 391.271C509.12 390.907 514.384 389.568 516.49 387.956C518.595 386.345 520.818 383.706 520.792 380.911C520.811 380.252 520.69 379.597 520.439 378.987C520.187 378.378 519.81 377.829 519.331 377.375C518.853 376.921 518.284 376.573 517.663 376.354C517.041 376.135 516.38 376.049 515.723 376.102C511.823 376.531 508.353 382.809 507.638 386.28C507.638 386.501 507.365 389.048 507.261 390.452C506.689 389.217 506.143 387.982 505.532 386.748C503.764 383.199 501.867 379.664 499.995 376.128L498.292 372.865C498.825 372.748 505.103 371.293 507.469 369.473C509.562 367.861 511.784 365.235 511.771 362.428C511.788 361.769 511.666 361.115 511.414 360.506C511.161 359.898 510.784 359.349 510.306 358.896C509.828 358.443 509.26 358.095 508.64 357.875C508.019 357.655 507.359 357.567 506.702 357.618C502.802 358.047 499.332 364.339 498.617 367.809C498.617 368.069 498.227 371.709 498.188 372.67C496.953 370.279 495.731 367.887 494.627 365.469C493.117 362.223 491.814 358.885 490.727 355.474C490.974 355.474 497.538 353.927 499.956 352.068C502.062 350.456 504.284 347.818 504.258 345.023C504.277 344.364 504.156 343.708 503.905 343.099C503.653 342.49 503.276 341.94 502.797 341.487C502.319 341.033 501.751 340.685 501.129 340.466C500.507 340.246 499.846 340.16 499.189 340.214C495.289 340.643 491.819 346.921 491.104 350.391C491.104 350.625 490.805 353.42 490.714 354.746H490.493C489.501 351.283 488.826 347.737 488.478 344.152C488.244 342.176 488.153 340.253 488.088 338.433C489.388 338.29 495.042 337.523 497.408 336.093C499.774 334.663 502.179 332.35 502.465 329.594C502.554 328.941 502.505 328.276 502.322 327.643C502.138 327.01 501.823 326.423 501.398 325.919C500.973 325.415 500.447 325.007 499.853 324.72C499.26 324.432 498.613 324.273 497.954 324.252C493.977 324.252 489.895 330.114 488.855 333.493C488.79 333.675 488.387 335.599 488.127 337.016C488.127 336.184 488.127 335.313 488.127 334.52C488.127 331.518 488.322 328.775 488.504 326.344C488.621 324.954 488.751 323.745 488.894 322.549C490.038 321.756 494.627 318.519 496.043 316.206C497.46 313.892 498.552 310.681 497.525 308.069C497.298 307.449 496.943 306.884 496.483 306.41C496.023 305.937 495.468 305.565 494.855 305.32C494.242 305.075 493.584 304.962 492.925 304.987C492.265 305.013 491.618 305.177 491.026 305.469C487.503 307.289 486.581 314.386 487.126 317.882C487.126 318.233 488.452 322.874 488.517 322.835Z" fill="#FDC840"/>
<path d="M306.619 436.024H251.129L211.042 457.667H271.549L306.619 436.024Z" fill="white" stroke="#1D272C" stroke-width="1.72082" stroke-linecap="round" stroke-linejoin="round"/>
<path d="M250.557 441.263H292.502" stroke="#1D272C" stroke-width="1.72082" stroke-linecap="round" stroke-linejoin="round"/>
<path d="M244.11 444.629H286.055" stroke="#1D272C" stroke-width="1.72082" stroke-linecap="round" stroke-linejoin="round"/>
<path d="M237.675 447.996H279.621" stroke="#1D272C" stroke-width="1.72082" stroke-linecap="round" stroke-linejoin="round"/>
<path d="M231.241 451.375H273.187" stroke="#1D272C" stroke-width="1.72082" stroke-linecap="round" stroke-linejoin="round"/>
<path d="M211.042 457.667V461.397H272.81L271.549 457.667H211.042Z" fill="white" stroke="#1D272C" stroke-width="1.72082" stroke-linecap="round" stroke-linejoin="round"/>
<path d="M272.81 461.397L308.243 439.209L306.619 436.024L271.549 457.667L272.81 461.397Z" fill="white" stroke="#1D272C" stroke-width="1.72082" stroke-linecap="round" stroke-linejoin="round"/>
<path d="M212.043 456.536C211.948 456.162 211.9 455.777 211.9 455.392C211.9 454.541 212.153 453.709 212.625 453.002C213.098 452.295 213.77 451.744 214.556 451.418C215.342 451.093 216.207 451.007 217.041 451.173C217.876 451.339 218.642 451.749 219.244 452.35" stroke="#1D272C" stroke-width="1.72082" stroke-linecap="round" stroke-linejoin="round"/>
<path d="M217.671 453.936C217.577 453.566 217.529 453.187 217.528 452.805C217.528 451.954 217.781 451.123 218.254 450.416C218.726 449.708 219.398 449.157 220.184 448.831C220.97 448.506 221.835 448.421 222.67 448.587C223.504 448.753 224.27 449.162 224.872 449.764" stroke="#1D272C" stroke-width="1.72082" stroke-linecap="round" stroke-linejoin="round"/>
<path d="M222.857 451.336C222.759 450.967 222.707 450.587 222.701 450.205C222.705 449.355 222.96 448.524 223.435 447.818C223.909 447.112 224.582 446.562 225.368 446.237C226.154 445.912 227.019 445.827 227.853 445.992C228.688 446.156 229.455 446.564 230.058 447.164" stroke="#1D272C" stroke-width="1.72082" stroke-linecap="round" stroke-linejoin="round"/>
<path d="M227.823 448.62C227.718 448.252 227.666 447.871 227.667 447.489C227.671 446.638 227.926 445.808 228.4 445.102C228.875 444.396 229.547 443.846 230.333 443.521C231.12 443.196 231.984 443.11 232.819 443.275C233.653 443.44 234.42 443.848 235.024 444.447" stroke="#1D272C" stroke-width="1.72082" stroke-linecap="round" stroke-linejoin="round"/>
<path d="M233.334 445.422C233.24 445.052 233.192 444.673 233.191 444.291C233.191 443.44 233.444 442.609 233.917 441.902C234.389 441.194 235.061 440.643 235.847 440.318C236.633 439.992 237.498 439.907 238.333 440.073C239.167 440.239 239.933 440.648 240.535 441.25" stroke="#1D272C" stroke-width="1.72082" stroke-linecap="round" stroke-linejoin="round"/>
<path d="M239.235 442.107C239.131 441.74 239.078 441.359 239.079 440.977C239.08 440.126 239.332 439.294 239.805 438.587C240.278 437.88 240.949 437.329 241.735 437.003C242.521 436.677 243.386 436.592 244.221 436.758C245.055 436.924 245.822 437.334 246.423 437.935" stroke="#1D272C" stroke-width="1.72082" stroke-linecap="round" stroke-linejoin="round"/>
<path d="M242.407 440.119C242.302 439.751 242.25 439.37 242.251 438.988C242.249 438.136 242.499 437.303 242.971 436.593C243.443 435.884 244.114 435.331 244.901 435.004C245.688 434.677 246.554 434.59 247.389 434.756C248.225 434.921 248.992 435.331 249.595 435.933" stroke="#1D272C" stroke-width="1.72082" stroke-linecap="round" stroke-linejoin="round"/>
<path d="M314.054 448.958C314.054 448.958 318.278 458.264 311.272 460.942L352.867 487.641C352.867 487.641 356.909 489.967 362.057 485.34C367.204 480.713 362.914 470.561 360.601 469.274C358.287 467.987 314.054 448.958 314.054 448.958Z" fill="white" stroke="#1D272C" stroke-width="1.72082" stroke-linecap="round" stroke-linejoin="round"/>
<path d="M366.177 427.783L312.364 448.438L355.414 471.835C357.671 473.387 359.55 475.426 360.913 477.801C361.162 478.402 361.357 479.024 361.498 479.66C361.754 480.844 361.658 482.078 361.222 483.208C360.786 484.339 360.029 485.317 359.044 486.023C358.059 486.729 356.889 487.132 355.679 487.181C354.468 487.231 353.269 486.925 352.23 486.302L311.272 460.994C311.272 460.994 307.464 460.994 311.818 464.257C315.431 466.934 343.222 483.832 352.048 489.031C352.941 489.562 353.943 489.884 354.978 489.974C356.013 490.064 357.055 489.92 358.027 489.551L416.741 465.777C417.601 465.209 418.334 464.469 418.893 463.603C419.453 462.737 419.826 461.765 419.99 460.747C420.334 458.719 419.996 456.635 419.029 454.819C418.063 453.004 416.522 451.56 414.648 450.712L366.177 427.783Z" fill="#1D272C" stroke="#1D272C" stroke-width="1.72082" stroke-linecap="round" stroke-linejoin="round"/>
<path d="M68.5152 165.321L60.5472 142.561L68.5152 152.232L62.25 118.098L71.9337 142.561L75.3393 94.7661L81.0326 140.286L87.2978 131.174V142.561L94.6938 127.197L90.7033 153.947L97.5405 149.398L86.7258 164.19L68.5152 165.321Z" fill="#7557D3"/>
<path d="M93.55 159.641H63.9658L69.2821 219.381H88.2337L93.55 159.641Z" fill="#1D272C" stroke="#1D272C" stroke-width="1.72082" stroke-linecap="round" stroke-linejoin="round"/>
<path d="M149.04 218.692H48.2378V432.216H149.04V218.692Z" fill="white" stroke="#1D272C" stroke-width="1.72082" stroke-linecap="round" stroke-linejoin="round"/>
<path d="M154.577 218.692H98.6453V432.216H154.577V218.692Z" fill="white" stroke="#1D272C" stroke-width="1.72082" stroke-linecap="round" stroke-linejoin="round"/>
<path d="M148.273 218.692H98.6453V432.216H148.273V218.692Z" fill="#1D272C" stroke="#1D272C" stroke-width="1.72082" stroke-linecap="round" stroke-linejoin="round"/>
<path d="M142.697 382.588H98.6453V426.315H142.697V382.588Z" fill="#7557D3" stroke="#1D272C" stroke-width="1.72082" stroke-linecap="round" stroke-linejoin="round"/>
<path d="M142.697 384.954H98.6453V390.556H142.697V384.954Z" fill="white" stroke="#1D272C" stroke-width="1.72082" stroke-linecap="round" stroke-linejoin="round"/>
<path d="M142.697 417.138H98.6453V422.74H142.697V417.138Z" fill="white" stroke="#1D272C" stroke-width="1.72082" stroke-linecap="round" stroke-linejoin="round"/>
<path d="M107.003 383.485V438.78" stroke="#1D272C" stroke-width="1.72082" stroke-linecap="round" stroke-linejoin="round"/>
<path d="M122.367 383.485V438.78" stroke="#1D272C" stroke-width="1.72082" stroke-linecap="round" stroke-linejoin="round"/>
<path d="M135.847 383.485V438.78" stroke="#1D272C" stroke-width="1.72082" stroke-linecap="round" stroke-linejoin="round"/>
<path d="M142.697 226.634H98.6453V290.924H142.697V226.634Z" fill="#7557D3" stroke="#1D272C" stroke-width="1.72082" stroke-linecap="round" stroke-linejoin="round"/>
<path d="M142.697 229.325H98.6453V235.694H142.697V229.325Z" fill="white" stroke="#1D272C" stroke-width="1.72082" stroke-linecap="round" stroke-linejoin="round"/>
<path d="M142.697 270.53H98.6453V276.899H142.697V270.53Z" fill="white" stroke="#1D272C" stroke-width="1.72082" stroke-linecap="round" stroke-linejoin="round"/>
<path d="M107.003 227.661V290.482" stroke="#1D272C" stroke-width="1.72082" stroke-linecap="round" stroke-linejoin="round"/>
<path d="M122.367 227.661V290.482" stroke="#1D272C" stroke-width="1.72082" stroke-linecap="round" stroke-linejoin="round"/>
<path d="M135.847 227.661V290.482" stroke="#1D272C" stroke-width="1.72082" stroke-linecap="round" stroke-linejoin="round"/>
<path d="M142.697 304.117H98.6453V368.407H142.697V304.117Z" fill="#7557D3" stroke="#1D272C" stroke-width="1.72082" stroke-linecap="round" stroke-linejoin="round"/>
<path d="M142.697 306.808H98.6453V313.177H142.697V306.808Z" fill="white" stroke="#1D272C" stroke-width="1.72082" stroke-linecap="round" stroke-linejoin="round"/>
<path d="M142.697 348.026H98.6453V354.395H142.697V348.026Z" fill="white" stroke="#1D272C" stroke-width="1.72082" stroke-linecap="round" stroke-linejoin="round"/>
<path d="M107.003 305.144V367.965" stroke="#1D272C" stroke-width="1.72082" stroke-linecap="round" stroke-linejoin="round"/>
<path d="M122.367 305.144V367.965" stroke="#1D272C" stroke-width="1.72082" stroke-linecap="round" stroke-linejoin="round"/>
<path d="M135.847 305.144V367.965" stroke="#1D272C" stroke-width="1.72082" stroke-linecap="round" stroke-linejoin="round"/>
<path d="M149.053 290.04H98.6453V297.345H149.053V290.04Z" fill="white" stroke="#1D272C" stroke-width="1.72082" stroke-linecap="round" stroke-linejoin="round"/>
<path d="M149.053 368.017H98.6453V375.322H149.053V368.017Z" fill="white" stroke="#1D272C" stroke-width="1.72082" stroke-linecap="round" stroke-linejoin="round"/>
<path d="M149.053 218.692V432.216" stroke="#1D272C" stroke-width="1.72082" stroke-linecap="round" stroke-linejoin="round"/>
<path d="M91.5482 218.692V432.216H98.6453V226.634H148.182V218.614L91.5482 218.692Z" fill="white" stroke="#1D272C" stroke-width="1.72082" stroke-linecap="round" stroke-linejoin="round"/>
<path d="M98.6453 226.634V218.692" stroke="#1D272C" stroke-width="1.72082" stroke-linecap="round" stroke-linejoin="round"/>
<path d="M582.976 431.02H6.81209" stroke="#1D272C" stroke-width="1.72082" stroke-linecap="round" stroke-linejoin="round"/>
<path d="M305.527 344.035H215.448C204.27 343.177 203.594 347.623 203.594 347.623L186.696 431.059H297.91C298.495 426.886 307.269 365.183 308.919 355.214C310.648 344.893 305.527 344.035 305.527 344.035Z" fill="white" stroke="#1D272C" stroke-width="1.72082" stroke-linecap="round" stroke-linejoin="round"/>
<path d="M305.527 344.035H305.358C304.708 344.035 302.277 344.685 300.795 351.34C299.314 357.995 290.852 415.188 288.512 431.059H297.949C298.534 426.886 307.308 365.183 308.958 355.214C310.648 344.893 305.527 344.035 305.527 344.035Z" fill="#1D272C" stroke="#1D272C" stroke-width="1.72082" stroke-linecap="round" stroke-linejoin="round"/>
<path d="M159.465 431.059H264.296C263.75 414.668 261.696 355.565 260.137 348.233C258.343 339.707 253.858 338.368 247.58 337.913C241.302 337.458 236.636 339.083 224.079 339.083C211.523 339.083 199.382 337.783 199.382 337.783C199.382 337.783 194.456 337.328 191.765 337.328C189.075 337.328 187.281 339.122 183.693 339.122C177.251 339.203 170.81 338.904 164.404 338.225C157.671 337.328 149.599 340.915 148.26 347.649C147.09 353.498 144.36 415.578 143.672 431.579H159.439L159.465 431.059Z" fill="#7557D3" stroke="#1D272C" stroke-width="1.72082" stroke-linecap="round" stroke-linejoin="round"/>
<path d="M189.738 346.947C189.738 346.947 193.442 364.728 203.802 369.161" stroke="#1D272C" stroke-width="1.72082" stroke-linecap="round" stroke-linejoin="round"/>
<path d="M180.106 343.983C180.106 343.983 174.907 355.097 182.329 371.384" stroke="#1D272C" stroke-width="1.72082" stroke-linecap="round" stroke-linejoin="round"/>
<path d="M241.575 366.951C241.575 366.951 229.733 397.302 203.802 411.38" stroke="#1D272C" stroke-width="1.72082" stroke-linecap="round" stroke-linejoin="round"/>
<path d="M192.688 327.423C192.688 327.423 193.585 339.98 194.924 347.155C196.263 354.33 203.893 358.853 212.42 356.124C220.947 353.394 224.521 347.61 224.976 343.567C225.431 339.525 225.418 324.291 225.418 324.291C225.418 324.291 211.939 333.26 192.688 327.423Z" fill="white" stroke="#1D272C" stroke-width="1.72082" stroke-linecap="round" stroke-linejoin="round"/>
<path d="M238.702 255.984C238.702 255.984 239.924 254.36 236.675 249.485C233.425 244.611 225.704 241.361 225.704 241.361L230.578 247.86C230.578 247.86 216.774 240.555 211.081 240.555C205.388 240.555 191.141 242.583 191.141 242.583L198.044 244.208C198.044 244.208 180.99 249.485 178.962 251.916C176.934 254.347 167.185 262.484 169.213 262.484C171.241 262.484 181.393 260.859 181.393 260.859C181.393 260.859 171.241 270.607 171.241 274.663C171.241 278.718 180.171 298.216 180.171 298.216C180.171 298.216 186.267 309.187 188.295 303.896C190.323 298.606 187.073 286.036 187.489 284.815C187.905 283.593 211.445 281.565 216.722 281.565C221.999 281.565 221.194 294.16 223.221 296.188C225.249 298.216 235.05 301.855 236.636 301.855C238.221 301.855 241.107 300.647 241.107 299.022C241.207 295.544 241.893 292.107 243.135 288.857C244.76 284.789 246.787 281.136 247.19 276.262C247.593 271.387 244.76 260.43 244.76 260.43H248.412C248.412 260.43 244.799 254.36 238.702 255.984Z" fill="#1D272C" stroke="#1D272C" stroke-width="1.72082" stroke-linecap="round" stroke-linejoin="round"/>
<path d="M182.264 295.356C182.264 295.356 180.223 287.648 176.57 292.926C174.218 296.331 180.223 309.979 183.472 310.798C186.722 311.617 182.264 295.356 182.264 295.356Z" fill="white" stroke="#1D272C" stroke-width="1.72082" stroke-linecap="round" stroke-linejoin="round"/>
<path d="M182.264 279.94C182.264 279.94 182.264 309.59 184.291 316.895C186.319 324.2 194.443 335.17 206.22 335.17C217.996 335.17 226.12 329.074 229.37 324.616C232.619 320.157 234.231 311.214 234.231 311.214C234.231 311.214 237.896 314.061 242.355 308.771C246.813 303.48 247.463 294.096 245.604 292.939C242.355 290.911 238.702 293.342 237.078 294.966L233.828 298.216C233.828 298.216 228.551 294.563 228.551 289.689C228.551 284.815 229.37 275.885 229.37 275.885L225.704 278.316L226.12 275.066C226.12 275.066 225.301 275.885 220.427 275.885C215.552 275.885 203.776 276.691 203.776 276.691L209.872 268.567C209.872 268.567 198.096 273.857 194.04 276.288C189.985 278.718 182.264 279.94 182.264 279.94Z" fill="white" stroke="#1D272C" stroke-width="1.72082" stroke-linecap="round" stroke-linejoin="round"/>
<path d="M197.524 297.735C197.524 299.932 196.653 301.725 195.574 301.725C194.495 301.725 193.624 299.932 193.624 297.735C193.624 295.538 194.495 293.745 195.574 293.745C196.653 293.745 197.524 295.538 197.524 297.735Z" fill="#1D272C"/>
<path d="M216.319 298.281C216.319 300.478 215.448 302.258 214.369 302.258C213.291 302.258 212.42 300.478 212.42 298.281C212.42 296.084 213.291 294.29 214.369 294.29C215.448 294.29 216.319 296.071 216.319 298.281Z" fill="#1D272C"/>
<path d="M200.773 307.159C200.773 307.159 200.773 312.865 207.844 311.5" stroke="#1D272C" stroke-width="1.72082" stroke-linecap="round" stroke-linejoin="round"/>
<path d="M198.603 317.453C198.603 317.453 204.309 320.976 212.199 317.181" stroke="#1D272C" stroke-width="1.72082" stroke-linecap="round" stroke-linejoin="round"/>
<path d="M188.542 290.027C189.237 288.762 190.346 287.774 191.684 287.23C193.021 286.685 194.505 286.617 195.886 287.037" stroke="#1D272C" stroke-width="1.72082" stroke-linecap="round" stroke-linejoin="round"/>
<path d="M210.561 287.037C210.561 287.037 217.06 285.14 219.53 289.494" stroke="#1D272C" stroke-width="1.72082" stroke-linecap="round" stroke-linejoin="round"/>
<path d="M149.066 345.062L131.05 394.677C131.05 394.677 119.508 403.06 118.273 405.231C115.166 410.651 119.209 418.346 122.939 422.363C128.814 428.667 140.76 429.564 147.909 424.885C152.601 421.817 155.357 415.578 157.125 410.444L159.023 366.847" fill="#7557D3"/>
<path d="M149.066 345.062L131.05 394.677C131.05 394.677 119.508 403.06 118.273 405.231C115.166 410.651 119.209 418.346 122.939 422.363C128.814 428.667 140.76 429.564 147.909 424.885C152.601 421.817 155.357 415.578 157.125 410.444L159.023 366.847" stroke="#1D272C" stroke-width="1.72082" stroke-linecap="round" stroke-linejoin="round"/>
<path d="M123.251 399.031C123.251 399.031 132.493 391.427 147.714 400.123" stroke="#1D272C" stroke-width="1.72082" stroke-linecap="round" stroke-linejoin="round"/>
<path d="M131.232 402.749L143.438 405.348C143.438 405.348 155.136 400.578 156.163 405.881C157.19 411.185 149.274 412.783 147.142 412.783C145.01 412.783 139.72 412.25 137.601 412.783C135.483 413.316 132.831 415.955 128.061 416.488C128.061 416.488 114.802 421.791 109.499 418.607C104.196 415.422 108.433 404.308 115.335 400.578C122.237 396.847 131.232 402.749 131.232 402.749Z" fill="white" stroke="#1D272C" stroke-width="1.72082" stroke-linecap="round" stroke-linejoin="round"/>
<path d="M104.053 406.674C104.053 406.674 98.8533 403.58 97.2155 407.519C95.5777 411.457 90.8073 420.595 93.7839 419.776C96.7606 418.958 104.053 406.674 104.053 406.674Z" fill="white" stroke="#1D272C" stroke-width="1.72082" stroke-linecap="round" stroke-linejoin="round"/>
<path d="M112.151 401.163C112.151 401.163 103.598 400.24 102.597 402.749C100.751 407.415 98.3594 420.257 102.077 421.31C105.794 422.363 106.847 414.421 108.966 409.612C110.202 406.864 111.266 404.042 112.151 401.163Z" fill="white" stroke="#1D272C" stroke-width="1.72082" stroke-linecap="round" stroke-linejoin="round"/>
<path d="M116.921 395.859C116.921 395.859 110.552 395.326 108.433 399.577C106.314 403.827 105.079 420.816 107.133 420.816C109.187 420.816 108.667 422.493 111.852 415.617C113.411 412.25 115.751 401.176 115.751 401.176L116.921 395.859Z" fill="white" stroke="#1D272C" stroke-width="1.72082" stroke-linecap="round" stroke-linejoin="round"/>
<path d="M132.766 404.191C132.766 404.191 124.317 396.99 122.094 395.755C119.872 394.521 118.364 394.014 115.881 396.249C113.398 398.485 112.904 406.427 110.929 411.392C108.953 416.358 106.951 421.557 109.434 421.557C111.917 421.557 114.152 420.322 116.128 417.658C118.104 414.993 121.847 405.244 121.847 405.244" fill="white"/>
<path d="M132.766 404.191C132.766 404.191 124.317 396.99 122.094 395.755C119.872 394.521 118.364 394.014 115.881 396.249C113.398 398.485 112.904 406.427 110.929 411.392C108.953 416.358 106.951 421.557 109.434 421.557C111.917 421.557 114.152 420.322 116.128 417.658C118.104 414.993 121.847 405.244 121.847 405.244" stroke="#1D272C" stroke-width="1.72082" stroke-linecap="round" stroke-linejoin="round"/>
<path d="M120.6 410.145C120.6 410.145 123.576 411.444 127.801 408.65L120.6 410.145Z" fill="white"/>
<path d="M120.6 410.145C120.6 410.145 123.576 411.444 127.801 408.65" stroke="#1D272C" stroke-width="1.72082" stroke-linecap="round" stroke-linejoin="round"/>
<path d="M245.5 337.562C245.5 337.562 255.652 335.612 260.579 340.551C265.505 345.491 279.686 382.536 284.625 395.144C289.565 407.753 294.491 416.67 293.139 422.948C291.788 429.226 281.441 431.462 273.863 431.917C265.245 432.424 259.565 426.977 259.565 425.184C259.565 423.39 256.419 419.36 262.255 405.452L258.213 375.855" fill="#7557D3"/>
<path d="M245.5 337.562C245.5 337.562 255.652 335.612 260.579 340.551C265.505 345.491 279.686 382.536 284.625 395.144C289.565 407.753 294.491 416.67 293.139 422.948C291.788 429.226 281.441 431.462 273.863 431.917C265.245 432.424 259.565 426.977 259.565 425.184C259.565 423.39 256.419 419.36 262.255 405.452L258.213 375.855" stroke="#1D272C" stroke-width="1.72082" stroke-linecap="round" stroke-linejoin="round"/>
<path d="M271.991 407.454C271.991 407.454 263.464 403.749 262.034 403.749C260.838 405.198 260.14 406.994 260.046 408.871C260.046 411.717 260.332 423.377 261.748 423.949C263.165 424.521 267.442 421.96 270.288 417.983C273.135 414.005 273.694 408.299 271.991 407.454Z" fill="white" stroke="#1D272C" stroke-width="1.72082" stroke-linecap="round" stroke-linejoin="round"/>
<path d="M265.739 391.544L260.903 430.76L262.632 437.038L265.479 431.631L270.6 392.09C270.67 391.453 270.485 390.814 270.086 390.312C269.686 389.811 269.105 389.487 268.469 389.412C268.149 389.369 267.823 389.39 267.512 389.474C267.2 389.558 266.908 389.704 266.654 389.902C266.4 390.101 266.188 390.349 266.03 390.631C265.873 390.913 265.774 391.223 265.739 391.544Z" fill="white" stroke="#1D272C" stroke-width="1.72082" stroke-linecap="round" stroke-linejoin="round"/>
<path d="M265.453 431.631L260.903 430.773L262.606 437.038L265.453 431.631Z" fill="white" stroke="#1D272C" stroke-width="1.72082" stroke-linecap="round" stroke-linejoin="round"/>
<path d="M268.443 389.412C268.124 389.372 267.8 389.397 267.491 389.483C267.181 389.57 266.892 389.717 266.641 389.917C266.389 390.117 266.18 390.365 266.025 390.646C265.87 390.928 265.773 391.237 265.739 391.557L265.115 396.626L269.859 397.575L270.574 392.09C270.644 391.453 270.459 390.814 270.06 390.312C269.66 389.811 269.079 389.487 268.443 389.412Z" fill="white" stroke="#1D272C" stroke-width="1.72082" stroke-linecap="round" stroke-linejoin="round"/>
<path d="M262.034 403.749C260.618 403.749 257.771 407.454 256.068 409.443C254.365 411.431 254.924 415.695 256.341 419.113C257.758 422.532 258.343 428.784 260.046 429.07C261.748 429.356 263.178 427.653 263.178 424.521C263.178 421.388 262.606 414.85 262.606 414.85" fill="white"/>
<path d="M262.034 403.749C260.618 403.749 257.771 407.454 256.068 409.443C254.365 411.431 254.924 415.695 256.341 419.113C257.758 422.532 258.343 428.784 260.046 429.07C261.748 429.356 263.178 427.653 263.178 424.521C263.178 421.388 262.606 414.85 262.606 414.85" stroke="#1D272C" stroke-width="1.72082" stroke-linecap="round" stroke-linejoin="round"/>
<path d="M281.09 423.949C281.09 423.949 283.092 429.356 280.817 432.203C278.542 435.049 271.133 433.906 269.716 432.775C268.3 431.644 275.982 429.642 281.09 423.949Z" fill="white" stroke="#1D272C" stroke-width="1.72082" stroke-linecap="round" stroke-linejoin="round"/>
<path d="M280.245 418.84C281 419.675 281.507 420.704 281.707 421.811C281.907 422.919 281.792 424.06 281.376 425.106C279.959 428.797 274.877 431.93 271.133 432.502C267.39 433.074 264.309 431.072 266.025 429.902C267.741 428.732 276.255 423.104 280.245 418.84Z" fill="white" stroke="#1D272C" stroke-width="1.72082" stroke-linecap="round" stroke-linejoin="round"/>
<path d="M276.826 412.575C276.826 412.575 280.245 415.695 280.245 418.827C280.245 421.96 271.991 429.356 268.014 430.773C264.036 432.19 262.034 430.773 263.178 428.173C264.322 425.574 275.696 412.822 275.696 412.822C275.696 412.822 275.124 412.003 276.826 412.575Z" fill="white" stroke="#1D272C" stroke-width="1.72082" stroke-linecap="round" stroke-linejoin="round"/>
<path d="M267.156 412.575C267.156 412.575 260.904 423.377 260.046 426.795C259.188 430.214 262.32 430.214 264.309 428.784C266.298 427.354 275.696 415.981 276.826 412.575C277.957 409.17 275.982 405.465 272.277 406.076C268.573 406.687 267.156 412.575 267.156 412.575Z" fill="white" stroke="#1D272C" stroke-width="1.72082" stroke-linecap="round" stroke-linejoin="round"/>
<path d="M492.482 430.994C494.328 417.528 501.724 363.559 503.231 354.551C504.947 344.23 499.787 343.372 499.787 343.372H409.747C398.569 342.514 397.893 346.96 397.893 346.96L381.437 430.994H492.482Z" fill="white" stroke="#1D272C" stroke-width="1.72082" stroke-linecap="round" stroke-linejoin="round"/>
<path d="M492.482 430.994C494.328 417.528 501.724 363.559 503.231 354.551C504.947 344.23 499.787 343.372 499.787 343.372H499.618C498.968 343.372 496.537 344.022 495.068 350.677C493.665 356.981 485.879 411.769 483.071 430.994H492.482Z" fill="#1D272C" stroke="#1D272C" stroke-width="1.72082" stroke-linecap="round" stroke-linejoin="round"/>
<path d="M308.945 430.994C315.808 423.481 337.685 399.564 343.209 394.027C349.799 387.436 354.816 381.171 354.816 381.171L356.701 430.994H461.104C460.987 430.318 455.099 392.857 450.133 367.068C445.116 341.071 440.099 316.271 428.816 300.595C417.533 284.919 383.972 268.931 383.972 268.931L355.128 291.457C355.128 291.457 346.667 301.491 344.158 311.214C341.649 320.937 335.371 345.699 332.55 355.409C329.951 364.312 297.923 421.44 292.567 430.942L308.945 430.994Z" fill="#7557D3" stroke="#1D272C" stroke-width="1.72082" stroke-linecap="round" stroke-linejoin="round"/>
<path d="M426.801 345.101C432.364 371.696 437.265 396.158 442.399 422.09" stroke="#1D272C" stroke-width="1.72082" stroke-linecap="round" stroke-linejoin="round"/>
<path d="M403.599 352.835C407.902 374.932 411.164 399.421 415.428 422.194" stroke="#1D272C" stroke-width="1.72082" stroke-linecap="round" stroke-linejoin="round"/>
<path d="M378.317 305.014C381.853 344.009 385.103 383.108 389.574 421.999" stroke="#1D272C" stroke-width="1.72082" stroke-linecap="round" stroke-linejoin="round"/>
<path d="M355.063 315.569C358.963 352.12 362.239 386.371 366.84 422.22" stroke="#1D272C" stroke-width="1.72082" stroke-linecap="round" stroke-linejoin="round"/>
<path d="M346.628 323.303C346.628 323.303 336.086 370.422 330.458 383.095" stroke="#1D272C" stroke-width="1.72082" stroke-linecap="round" stroke-linejoin="round"/>
<path d="M349.435 359.165C349.435 359.165 343.118 385.162 338.192 395.028" stroke="#1D272C" stroke-width="1.72082" stroke-linecap="round" stroke-linejoin="round"/>
<path d="M384.609 282.514L400.779 293.757" stroke="#1D272C" stroke-width="1.72082" stroke-linecap="round" stroke-linejoin="round"/>
<path d="M354.817 381.171L349.487 338.537" stroke="#1D272C" stroke-width="1.72082" stroke-linecap="round" stroke-linejoin="round"/>
<path d="M308.945 430.994C315.445 423.858 335.475 401.969 342.13 395.132C336.567 391.492 327.078 385.305 320.384 381.054C310.752 399.746 296.129 424.937 292.593 430.994H308.945Z" fill="white" stroke="#1D272C" stroke-width="1.72082" stroke-linecap="round" stroke-linejoin="round"/>
<path d="M315.925 389.321C315.925 389.321 334.123 402.489 335.683 402.489C337.243 402.489 346.342 393.39 346.966 391.518C347.589 389.646 325.024 374.269 323.724 374.269C322.425 374.269 315.925 384.941 315.925 389.321Z" fill="white" stroke="#1D272C" stroke-width="1.72082" stroke-linecap="round" stroke-linejoin="round"/>
<path d="M359.522 301.531L362.654 334.455L368.296 333.207L367.672 325.993" stroke="#1D272C" stroke-width="1.72082" stroke-linecap="round" stroke-linejoin="round"/>
<path d="M346.355 296.825L344.782 309.68L356.389 297.774L346.355 296.825Z" fill="white" stroke="#1D272C" stroke-width="1.72082" stroke-linecap="round" stroke-linejoin="round"/>
<path d="M352.932 286.167L346.354 296.825L364.227 303.727L369.232 290.56L352.932 286.167Z" fill="white" stroke="#1D272C" stroke-width="1.72082" stroke-linecap="round" stroke-linejoin="round"/>
<path d="M305.592 214.052C305.592 214.052 303.083 230.053 304.019 233.185C304.955 236.318 309.036 240.087 309.348 242.908C309.66 245.729 302.147 255.438 304.331 257.947C306.515 260.456 311.233 262.341 311.233 262.341C311.233 262.341 320.644 287.115 325.024 288.051C329.405 288.987 343.534 281.474 343.534 281.474C343.534 281.474 361.082 297.462 362.031 298.372C362.979 299.282 380.527 263.887 380.527 263.887C380.527 263.887 372.728 248.523 372.728 247.574C372.728 246.626 384.96 213.09 384.323 199.611C383.686 186.131 345.133 172.964 337.295 174.212C329.457 175.46 312.845 184.611 312.845 184.611C312.845 184.611 318.798 179.593 313.781 179.905C308.763 180.217 293.711 191.513 294.348 201.222C294.985 210.932 305.592 214.052 305.592 214.052Z" fill="white" stroke="#1D272C" stroke-width="1.72082" stroke-linecap="round" stroke-linejoin="round"/>
<path d="M359.21 265.161C362.342 256.387 355.44 239.762 356.064 236.006C356.688 232.249 359.834 223.151 365.475 223.151C371.116 223.151 370.181 234.433 369.557 239.138C368.961 242.457 367.791 245.646 366.099 248.562C366.099 248.562 369.791 247.899 372.715 247.444C373.43 244.624 384.895 212.713 384.284 199.65C383.66 186.17 345.094 173.003 337.256 174.251C329.418 175.499 312.806 184.649 312.806 184.649C312.806 184.649 318.759 179.632 313.742 179.944C308.724 180.256 293.672 191.552 294.309 201.261C294.946 210.971 305.592 214.117 305.592 214.117C305.592 214.117 325.661 204.095 332.888 203.146C340.115 202.197 330.705 210.048 330.068 214.442C329.431 218.835 340.466 222.241 344.496 226.036C348.525 229.832 351.073 253.944 348.577 259.585C346.082 265.226 334.149 262.405 328.508 260.209C322.867 258.012 311.259 262.405 311.259 262.405C311.259 262.405 320.67 287.18 325.05 288.116C327.455 288.636 332.758 286.608 337.074 284.685L343.573 281.539C343.573 281.539 356.064 273.948 359.21 265.161Z" fill="#1D272C" stroke="#1D272C" stroke-width="1.72082" stroke-linecap="round" stroke-linejoin="round"/>
<path d="M319.032 242.258C319.526 244.273 319.318 246.054 318.564 246.249C317.81 246.444 316.783 244.949 316.289 242.921C315.795 240.893 316.003 239.126 316.757 238.931C317.511 238.736 318.525 240.23 319.032 242.258Z" fill="#1D272C"/>
<path d="M315.925 267.982C315.925 267.982 322.191 267.982 325.648 262.964" stroke="#7D7D7D" stroke-width="1.72082" stroke-linecap="round" stroke-linejoin="round"/>
<path d="M310.921 234.433C310.921 234.433 311.857 230.053 319.695 233.133" stroke="#1D272C" stroke-width="3.44163" stroke-linecap="round" stroke-linejoin="round"/>
<path d="M379.266 258.584L357.637 300.907L369.232 315.335L388.989 268.619L379.266 258.584Z" fill="white" stroke="#1D272C" stroke-width="1.72082" stroke-linecap="round" stroke-linejoin="round"/>
<path d="M404.665 296.513C404.665 296.513 394.942 295.213 391.186 298.086C387.429 300.959 368.296 346.05 368.296 346.05C374.011 347.707 379.128 350.974 383.036 355.461C388.989 362.675 393.434 375.53 393.434 375.53C393.434 375.53 418.833 344.49 423.526 337.588" fill="#7557D3"/>
<path d="M404.665 296.513C404.665 296.513 394.942 295.213 391.186 298.086C387.429 300.959 368.296 346.05 368.296 346.05C374.011 347.707 379.128 350.974 383.036 355.461C388.989 362.675 393.434 375.53 393.434 375.53C393.434 375.53 418.833 344.49 423.526 337.588" stroke="#1D272C" stroke-width="1.72082" stroke-linecap="round" stroke-linejoin="round"/>
<path d="M406.407 302.908C406.407 302.908 397.971 303.61 395.15 308.537C392.33 313.463 370.518 358.463 370.518 358.463L379.617 366.197C379.617 366.197 398.608 326.11 404.236 319.078C407.925 314.725 412.818 311.559 418.3 309.979" stroke="#1D272C" stroke-width="1.72082" stroke-linecap="round" stroke-linejoin="round"/>
<path d="M419.769 324.005L388.82 366.899" stroke="#1D272C" stroke-width="1.72082" stroke-linecap="round" stroke-linejoin="round"/>
<path d="M363.59 343.866C363.59 343.866 355.128 349.195 355.128 355.149C355.128 361.102 362.654 374.646 370.804 381.145C378.954 387.644 386.168 385.851 390.302 383.03C394.435 380.209 404.405 378.637 405.029 367.354C405.653 356.072 390.302 339.759 383.712 337.562C377.122 335.365 363.59 343.866 363.59 343.866Z" fill="white" stroke="#1D272C" stroke-width="1.72082" stroke-linecap="round" stroke-linejoin="round"/>
<path d="M225.639 381.145C225.639 381.145 222.194 384.278 218.737 386.787C215.279 389.295 211.536 391.18 214.668 392.753C217.801 394.326 221.246 393.065 224.703 392.428C228.161 391.791 232.229 390.868 232.502 388.359C232.775 385.851 232.229 378.351 225.639 381.145Z" fill="white" stroke="#1D272C" stroke-width="1.72082" stroke-linecap="round" stroke-linejoin="round"/>
<path d="M385.233 379.923C385.233 379.923 390.25 371.137 385.545 362.363C380.839 353.589 371.74 349.507 366.047 349.507C360.354 349.507 264.153 376.466 264.153 376.466C264.153 376.466 234.998 368.316 231.54 369.577C228.083 370.838 207.402 382.107 202.697 384.304C197.992 386.501 197.992 389.321 200.188 389.633C202.385 389.945 207.987 388.073 210.847 387.125C213.707 386.176 223.078 382.744 223.078 382.744C222.289 384.993 221.66 387.295 221.194 389.633C221.194 390.933 229.98 395.599 231.592 395.599C233.204 395.599 238.494 396.535 242.251 395.287C246.007 394.04 240.691 388.697 240.691 388.697L247.268 385.877C247.268 385.877 253.858 389.321 259.5 389.009C262.552 388.941 265.55 388.191 268.274 386.813C268.274 386.813 370.181 383.992 385.233 379.923Z" fill="white" stroke="#1D272C" stroke-width="1.72082" stroke-linecap="round" stroke-linejoin="round"/>
<path d="M228.837 379.923C228.837 379.923 224.768 387.722 225.704 389.321C226.64 390.92 234.803 395.288 234.803 395.288" stroke="#1D272C" stroke-width="1.72082" stroke-linecap="round" stroke-linejoin="round"/>
<path d="M235.336 380.235C235.336 380.235 231.254 388.034 232.515 389.633C233.776 391.232 242.225 395.287 242.225 395.287" stroke="#1D272C" stroke-width="1.72082" stroke-linecap="round" stroke-linejoin="round"/>
<path d="M223.13 382.744L223.754 379.923" stroke="#1D272C" stroke-width="1.72082" stroke-linecap="round" stroke-linejoin="round"/>
<path d="M216.189 430.11H111.137L71.0499 451.765H181.107L216.189 430.11Z" fill="white" stroke="#1D272C" stroke-width="1.72082" stroke-linecap="round" stroke-linejoin="round"/>
<path d="M118.013 435.777H195.574" stroke="#1D272C" stroke-width="1.72082" stroke-linecap="round" stroke-linejoin="round"/>
<path d="M112.359 439.807H189.92" stroke="#1D272C" stroke-width="1.72082" stroke-linecap="round" stroke-linejoin="round"/>
<path d="M106.691 443.849H184.265" stroke="#1D272C" stroke-width="1.72082" stroke-linecap="round" stroke-linejoin="round"/>
<path d="M195.977 435.777L173.763 446.683" stroke="#1D272C" stroke-width="1.72082" stroke-linecap="round" stroke-linejoin="round"/>
<path d="M183.862 435.777L161.648 446.683" stroke="#1D272C" stroke-width="1.72082" stroke-linecap="round" stroke-linejoin="round"/>
<path d="M52.2543 376.206H162.324L181.107 451.765H71.0499L52.2543 376.206Z" fill="#1D272C" stroke="#1D272C" stroke-width="1.72082" stroke-linecap="round" stroke-linejoin="round"/>
<path d="M71.0369 457.134H181.107V451.765H71.0369V457.134Z" fill="white" stroke="#1D272C" stroke-width="1.72082" stroke-linecap="round" stroke-linejoin="round"/>
<path d="M51.0324 376.206H161.102L179.898 451.765H69.828L51.0324 376.206Z" fill="white" stroke="#1D272C" stroke-width="1.72082" stroke-linecap="round" stroke-linejoin="round"/>
<path d="M181.107 451.765L216.189 430.11V434.556L181.107 457.134V451.765Z" fill="#1D272C" stroke="#1D272C" stroke-width="1.72082" stroke-linecap="round" stroke-linejoin="round"/>
<path d="M120.249 411.691C120.422 412.818 120.264 413.971 119.795 415.01C119.326 416.049 118.565 416.93 117.605 417.545C116.645 418.16 115.527 418.483 114.387 418.475C113.247 418.467 112.134 418.128 111.183 417.499C110.232 416.871 109.483 415.98 109.029 414.934C108.574 413.889 108.433 412.734 108.622 411.609C108.811 410.485 109.323 409.44 110.095 408.601C110.866 407.762 111.865 407.165 112.97 406.882C114.572 406.559 116.237 406.884 117.601 407.785C118.965 408.687 119.917 410.091 120.249 411.691V411.691Z" stroke="#1D272C" stroke-width="1.72082" stroke-linecap="round" stroke-linejoin="round"/>
</svg>
