<svg width="4" height="12" viewBox="0 0 4 12" fill="none" xmlns="http://www.w3.org/2000/svg">
<path d="M1.99935 0C1.26602 0 0.666016 0.6 0.666016 1.33333C0.666016 2.06667 1.26602 2.66667 1.99935 2.66667C2.73268 2.66667 3.33268 2.06667 3.33268 1.33333C3.33268 0.6 2.73268 0 1.99935 0ZM1.99935 9.33333C1.26602 9.33333 0.666016 9.93333 0.666016 10.6667C0.666016 11.4 1.26602 12 1.99935 12C2.73268 12 3.33268 11.4 3.33268 10.6667C3.33268 9.93333 2.73268 9.33333 1.99935 9.33333ZM1.99935 4.66667C1.26602 4.66667 0.666016 5.26667 0.666016 6C0.666016 6.73333 1.26602 7.33333 1.99935 7.33333C2.73268 7.33333 3.33268 6.73333 3.33268 6C3.33268 5.26667 2.73268 4.66667 1.99935 4.66667Z" fill="#4F4F4F"/>
</svg>
